<svg width="32" height="32" viewBox="0 0 32 32" fill="none" xmlns="http://www.w3.org/2000/svg">
  <!-- Background -->
  <rect width="32" height="32" rx="7" fill="url(#gradient_bg)"/>
  
  <!-- Letter E -->
  <path d="M8 10h7v2h-5v2h4v2h-4v2h5v2H8V10z" fill="url(#gradient_e)"/>
  
  <!-- Letter R -->  
  <path d="M16 10h4c1.1 0 2 .9 2 2v1c0 .6-.4 1.1-.9 1.4l1.4 2.6h-2.3l-1.2-2H18v2h-2V10zm2 2v2h2v-2h-2z" fill="url(#gradient_r)"/>
  
  <!-- Radar dot -->
  <circle cx="26" cy="22" r="2" fill="#ec4899" opacity="0.9">
    <animate attributeName="opacity" values="0.9;0.3;0.9" dur="2s" repeatCount="indefinite"/>
  </circle>
  
  <defs>
    <linearGradient id="gradient_bg" x1="0%" y1="0%" x2="100%" y2="100%">
      <stop offset="0%" style="stop-color:#1e293b"/>
      <stop offset="100%" style="stop-color:#0f172a"/>
    </linearGradient>
    <linearGradient id="gradient_e" x1="0%" y1="0%" x2="100%" y2="100%">
      <stop offset="0%" style="stop-color:#22d3ee"/>
      <stop offset="100%" style="stop-color:#3b82f6"/>
    </linearGradient>
    <linearGradient id="gradient_r" x1="0%" y1="0%" x2="100%" y2="100%">
      <stop offset="0%" style="stop-color:#ec4899"/>
      <stop offset="100%" style="stop-color:#8b5cf6"/>
    </linearGradient>
  </defs>
</svg>